<svg width="375" height="335" viewBox="0 0 375 335" fill="none" xmlns="http://www.w3.org/2000/svg">
<path d="M118.756 40.8023C91.7869 40.8961 29.5994 82.1773 7.91193 176.459C-13.7756 270.74 8.94318 328.115 78.2869 333.49C146.318 338.771 166.537 291.115 169.599 274.709C178.599 226.74 170.381 146.959 161.006 103.552C151.631 60.1461 145.599 40.7086 118.756 40.8023V40.8023Z" fill="#FEA8A7"/>
<path d="M216.006 267.052C219.724 283.209 219.131 296.646 227.006 310.615C236.693 327.771 251.662 330.396 251.662 330.396L238.443 256.49L208.099 224.802L203.287 232.771C203.256 232.802 212.631 252.427 216.006 267.052Z" fill="#FED0B0"/>
<path d="M257.256 43.5211C283.912 43.3961 345.349 84.5836 366.787 178.052C388.224 271.552 365.787 328.459 297.256 333.771C275.381 335.459 258.537 334.709 245.631 328.177C233.474 317.615 237.881 293.615 232.224 267.865C229.506 255.427 216.099 240.365 203.287 232.521C202.537 188.677 208.724 137.427 215.568 105.709C224.818 62.7086 231.381 43.6461 257.256 43.5211Z" fill="#FEA8A7"/>
<path d="M12.0994 160.49C12.0994 160.49 29.9119 186.552 80.6307 198.896C131.349 211.24 173.068 204.177 173.068 204.177C173.068 204.177 170.256 153.959 165.631 128.771C161.006 103.584 114.662 82.7398 105.568 82.4273C96.4744 82.1148 52.1307 83.5523 52.1307 83.5523C52.1307 83.5523 38.5369 99.7398 29.9744 116.334C20.8182 134.146 12.0994 160.49 12.0994 160.49Z" fill="url(#paint0_linear_4_2227)"/>
<path d="M1.22443 215.615C1.22443 215.615 28.1307 244.927 41.9432 265.771C55.7557 286.615 83.2244 333.677 83.2244 333.677C83.2244 333.677 114.662 336.802 138.662 320.396C153.912 309.927 164.724 303.427 170.193 271.459C175.662 239.49 111.443 223.209 101.162 222.927C90.9119 222.646 42.0682 195.584 35.5994 188.427C29.1307 181.271 10.3494 167.365 10.3494 167.365C10.3494 167.365 6.25568 183.427 5.25568 188.74C4.28693 194.021 1.22443 215.615 1.22443 215.615Z" fill="url(#paint1_linear_4_2227)"/>
<path d="M238.381 315.427C238.381 315.427 258.662 314.709 302.381 281.865C346.099 249.021 370.412 195.74 370.412 195.74C370.412 195.74 366.818 177.834 365.537 172.927C364.287 168.021 300.599 175.959 284.193 181.552C267.756 187.115 203.943 201.802 203.943 201.802C203.943 201.802 203.193 231.459 203.256 232.802C204.068 232.865 224.881 249.709 228.912 259.771C234.474 273.646 234.818 288.959 235.256 295.802C235.849 304.802 238.381 315.427 238.381 315.427V315.427Z" fill="url(#paint2_linear_4_2227)"/>
<path d="M53.3494 147.834C50.1306 145.49 45.4431 140.802 48.0681 137.584C50.6931 134.365 57.7556 138.771 61.2556 141.396C64.7869 144.021 70.9431 149.021 70.9431 149.021L97.6306 145.802C97.6306 145.802 75.6306 126.74 71.5369 123.209C67.4431 119.677 58.6306 112.646 62.4431 108.552C66.2556 104.459 73.2869 111.177 77.0994 114.709C80.9119 118.24 106.443 137.584 106.443 137.584C106.443 137.584 100.881 119.115 99.0994 113.521C97.3494 107.959 92.3494 96.8023 97.6306 94.7398C102.912 92.6773 106.131 103.834 108.787 109.99C111.412 116.146 126.974 151.927 126.974 151.927C126.974 151.927 132.849 158.521 138.412 155.365C143.974 152.209 173.474 120.24 173.474 120.24L173.068 11.7086C173.068 11.7086 178.287 9.64609 185.631 9.36484C192.974 9.08359 199.412 11.7086 199.412 11.7086L200.599 120.802C200.599 120.802 228.756 154.24 234.912 155.396C241.068 156.552 246.068 157.74 248.974 155.396C251.912 153.052 271.568 120.802 273.318 115.209C275.068 109.646 269.224 93.2086 273.318 90.8648C277.412 88.5211 280.068 95.2711 281.537 100.24C283.006 105.24 284.756 110.49 284.756 110.49C284.756 110.49 291.193 109.021 295.006 107.865C298.818 106.677 303.818 106.677 304.381 109.615C304.974 112.552 295.287 117.521 290.881 120.459C286.474 123.396 279.443 125.74 280.631 130.427C281.818 135.115 291.193 133.646 297.631 133.959C304.068 134.24 308.193 135.146 308.193 138.646C308.193 142.177 298.224 143.834 290.287 144.177C282.381 144.521 271.818 144.177 271.818 144.177C271.818 144.177 265.943 153.959 265.943 156.709C265.943 159.459 282.381 161.521 292.037 163.271C301.724 165.021 323.724 166.396 323.412 171.427C323.131 176.459 315.599 175.896 310.506 176.334C305.412 176.771 292.724 173.552 292.912 176.334C293.099 179.115 304.631 189.959 299.943 192.896C295.256 195.834 288.506 185.865 284.099 181.459C279.693 177.052 276.756 174.427 276.756 174.427C276.756 174.427 238.724 174.865 238.412 176.459C238.131 178.052 262.474 209.74 266.849 211.209C271.256 212.677 292.662 216.49 300.287 217.646C307.912 218.834 315.537 221.177 314.943 224.834C314.349 228.49 305.256 228.209 299.099 228.209H282.381C282.381 228.209 302.631 246.146 307.006 251.24C311.381 256.334 329.006 270.709 323.443 274.834C317.881 278.927 294.568 255.521 289.068 251.24C283.568 246.959 270.349 236.99 269.193 238.146C268.037 239.302 277.412 254.865 279.443 258.677C281.474 262.49 290.099 274.802 283.756 277.584C278.818 279.74 265.099 254.584 263.318 254.584C261.568 254.584 260.693 280.396 256.287 279.209C251.881 278.021 251.599 268.959 251.006 253.115C250.412 237.271 253.631 228.49 250.131 224.802C246.599 221.146 232.224 196.209 226.662 191.802C221.099 187.396 186.974 155.459 186.974 155.459C186.974 155.459 151.599 187.146 144.287 193.021C136.943 198.896 122.881 210.334 121.412 213.271C119.943 216.209 117.881 225.896 118.193 229.396C118.474 232.927 127.881 254.927 129.631 258.427C131.381 261.959 137.256 274.865 132.568 276.334C127.881 277.802 122.006 265.177 119.662 261.365C117.318 257.552 111.443 247.584 111.443 247.584C111.443 247.584 106.162 271.021 103.818 277.646C101.474 284.24 96.1931 304.771 90.3181 300.959C84.4431 297.146 87.3806 287.74 90.3181 277.646C93.2556 267.552 95.5994 259.334 95.3181 258.146C95.0369 256.959 75.0681 268.115 71.2556 270.771C67.4431 273.396 56.5994 280.146 53.9431 275.459C51.3181 270.771 63.3181 263.146 67.7244 260.209C72.1306 257.271 99.9744 239.677 99.9744 239.677C99.9744 239.677 100.256 236.459 102.037 228.24C103.818 220.021 104.381 215.052 104.381 215.052L86.1619 215.927C86.1619 215.927 75.3494 226.177 72.4119 229.427C69.4744 232.646 62.7244 241.146 60.0994 236.771C57.4744 232.365 69.4744 219.177 69.4744 219.177C69.4744 219.177 60.6619 218.584 56.2869 218.896C51.8806 219.177 46.5994 219.49 46.3181 215.365C46.0369 211.271 62.1619 207.927 70.0681 206.209C77.9744 204.49 105.256 198.646 105.256 198.646L129.006 176.521C129.006 176.521 112.568 159.334 109.943 159.052C107.318 158.771 75.6306 160.802 75.6306 160.802C75.6306 160.802 69.1931 166.677 66.2556 169.615C63.3181 172.552 58.3494 179.927 54.5369 176.521C50.7244 173.115 55.1306 168.427 57.4744 165.209L62.4744 156.74" fill="#FEE5C3"/>
<path d="M138.412 155.396C143.974 152.24 173.474 120.271 173.474 120.271L173.068 2.36484C173.068 2.36484 178.287 0.302338 185.631 0.0210877C192.974 -0.260162 199.412 2.36484 199.412 2.36484L200.599 120.834C200.599 120.834 228.756 154.271 234.912 155.427C241.068 156.584 238.724 174.834 238.443 176.427C238.162 178.021 232.287 196.209 226.724 191.802C221.162 187.396 186.974 155.459 186.974 155.459C186.974 155.459 151.599 187.146 144.287 193.021C136.943 198.896 129.037 176.459 129.037 176.459C129.037 176.459 132.849 158.552 138.412 155.396Z" fill="url(#paint3_linear_4_2227)"/>
<path d="M168.693 85.5836C168.724 92.6148 175.099 91.9586 186.974 91.9586C198.849 91.9586 204.756 92.6461 204.787 85.5836C204.818 77.4586 197.756 78.9898 186.756 78.9898C175.724 78.9898 168.662 77.8961 168.693 85.5836Z" fill="#F2A159"/>
<path d="M168.943 64.7086C168.974 71.7398 175.349 71.0836 187.224 71.0836C199.099 71.0836 205.006 71.7711 205.037 64.7086C205.068 56.5836 198.006 58.1148 187.006 58.1148C175.974 58.0836 168.912 56.9898 168.943 64.7086Z" fill="#F2A159"/>
<path d="M168.943 43.8023C168.974 50.8336 175.349 50.1773 187.224 50.1773C199.099 50.1773 205.006 50.8648 205.037 43.8023C205.068 35.6773 198.006 37.2086 187.006 37.2086C175.974 37.2086 168.912 36.0836 168.943 43.8023Z" fill="#F2A159"/>
<path d="M168.943 23.5523C168.974 30.5836 175.349 29.9273 187.224 29.9273C199.099 29.9273 205.006 30.6148 205.037 23.5523C205.068 15.4273 198.006 16.9586 187.006 16.9586C175.974 16.9586 168.912 15.8648 168.943 23.5523Z" fill="#F2A159"/>
<defs>
<linearGradient id="paint0_linear_4_2227" x1="106.615" y1="82.5367" x2="89.9057" y2="201.409" gradientUnits="userSpaceOnUse">
<stop offset="0.294" stop-color="#FEA8A7"/>
<stop offset="0.548" stop-color="#FEA4A2"/>
<stop offset="0.827" stop-color="#FE9895"/>
</linearGradient>
<linearGradient id="paint1_linear_4_2227" x1="123.646" y1="203.305" x2="35.7276" y2="277.08" gradientUnits="userSpaceOnUse">
<stop offset="0.404" stop-color="#FEA8A7"/>
<stop offset="0.609" stop-color="#FEA3A1"/>
<stop offset="0.824" stop-color="#FE9895"/>
</linearGradient>
<linearGradient id="paint2_linear_4_2227" x1="253.534" y1="169.605" x2="319.743" y2="271.559" gradientUnits="userSpaceOnUse">
<stop offset="0.352" stop-color="#FEA8A7"/>
<stop offset="0.794" stop-color="#FE9B99"/>
<stop offset="0.893" stop-color="#FE9895"/>
</linearGradient>
<linearGradient id="paint3_linear_4_2227" x1="184.068" y1="0.0117127" x2="184.068" y2="193.987" gradientUnits="userSpaceOnUse">
<stop offset="0.31" stop-color="#FED3B3"/>
<stop offset="0.647" stop-color="#FED5B5"/>
<stop offset="0.769" stop-color="#FEDCBB"/>
<stop offset="0.841" stop-color="#FEE5C3"/>
</linearGradient>
</defs>
</svg>
