<svg width="60" height="49" viewBox="0 0 60 49" fill="none" xmlns="http://www.w3.org/2000/svg">
<path d="M60 5.78574C57.7935 6.76346 55.4232 7.42408 52.9314 7.72268C55.5025 6.18421 57.4261 3.76284 58.3432 0.910381C55.9275 2.34522 53.2838 3.35518 50.5267 3.89638C48.6727 1.91681 46.217 0.604716 43.5409 0.163813C40.8648 -0.277089 38.1179 0.177865 35.7269 1.45804C33.3358 2.73822 31.4343 4.77199 30.3175 7.24361C29.2007 9.71522 28.9312 12.4864 29.5508 15.1269C24.6561 14.8811 19.8678 13.6089 15.4966 11.3928C11.1254 9.17673 7.26902 6.06627 4.17775 2.26333C3.12076 4.08663 2.51299 6.20061 2.51299 8.452C2.51181 10.4788 3.01092 12.4745 3.96603 14.2621C4.92114 16.0497 6.30273 17.5739 7.9882 18.6995C6.0335 18.6373 4.12192 18.1091 2.41258 17.1589V17.3175C2.41238 20.1601 3.39566 22.9153 5.19559 25.1154C6.99551 27.3156 9.5012 28.8253 12.2875 29.3883C10.4742 29.8791 8.57308 29.9514 6.72774 29.5997C7.51387 32.0456 9.04517 34.1845 11.1073 35.7168C13.1694 37.2492 15.6591 38.0984 18.2278 38.1455C13.8673 41.5686 8.48204 43.4254 2.93843 43.4172C1.95644 43.4175 0.975274 43.3601 0 43.2454C5.62708 46.8635 12.1774 48.7836 18.8673 48.7761C41.5133 48.7761 53.8932 30.0199 53.8932 13.7528C53.8932 13.2243 53.88 12.6905 53.8563 12.162C56.2643 10.4206 58.3429 8.26411 59.9947 5.79367L60 5.78574V5.78574Z" fill="#FEE5C3"/>
</svg>
